<?xml version="1.0" encoding="UTF-8" standalone="no"?>
<!DOCTYPE svg PUBLIC "-//W3C//DTD SVG 1.1//EN"
 "http://www.w3.org/Graphics/SVG/1.1/DTD/svg11.dtd">
<!-- Generated by graphviz version 2.43.0 (0)
 -->
<!-- Title: pastafarianism Pages: 1 -->
<svg width="3792pt" height="372pt"
 viewBox="0.00 0.00 3792.15 372.00" xmlns="http://www.w3.org/2000/svg" xmlns:xlink="http://www.w3.org/1999/xlink">
<g id="graph0" class="graph" transform="scale(1 1) rotate(0) translate(4 368)">
<title>pastafarianism</title>
<polygon fill="white" stroke="transparent" points="-4,4 -4,-368 3788.15,-368 3788.15,4 -4,4"/>
<!-- Selector_0 -->
<g id="node1" class="node">
<title>Selector_0</title>
<polygon fill="cyan" stroke="black" points="1885.31,-338.54 1885.31,-353.46 1865.39,-364 1837.23,-364 1817.32,-353.46 1817.32,-338.54 1837.23,-328 1865.39,-328 1885.31,-338.54"/>
<text text-anchor="middle" x="1851.31" y="-343.8" font-family="Times,serif" font-size="9.00">Selector_0</text>
</g>
<!-- Sequence_1 -->
<g id="node2" class="node">
<title>Sequence_1</title>
<polygon fill="orange" stroke="black" points="677.81,-292 618.81,-292 618.81,-256 677.81,-256 677.81,-292"/>
<text text-anchor="middle" x="648.31" y="-271.8" font-family="Times,serif" font-size="9.00">Sequence_1</text>
</g>
<!-- Selector_0&#45;&gt;Sequence_1 -->
<g id="edge1" class="edge">
<title>Selector_0&#45;&gt;Sequence_1</title>
<path fill="none" stroke="black" d="M1817.56,-343.04C1646.14,-333.06 872.78,-288.06 688.04,-277.31"/>
<polygon fill="black" stroke="black" points="688.14,-273.81 677.95,-276.72 687.73,-280.8 688.14,-273.81"/>
</g>
<!-- Sequence_1* -->
<g id="node17" class="node">
<title>Sequence_1*</title>
<polygon fill="orange" stroke="black" points="1566.31,-292 1502.31,-292 1502.31,-256 1566.31,-256 1566.31,-292"/>
<text text-anchor="middle" x="1534.31" y="-271.8" font-family="Times,serif" font-size="9.00">Sequence_1*</text>
</g>
<!-- Selector_0&#45;&gt;Sequence_1* -->
<g id="edge16" class="edge">
<title>Selector_0&#45;&gt;Sequence_1*</title>
<path fill="none" stroke="black" d="M1818.58,-337.77C1760.74,-325 1640.53,-298.46 1576.54,-284.32"/>
<polygon fill="black" stroke="black" points="1576.91,-280.82 1566.39,-282.08 1575.4,-287.66 1576.91,-280.82"/>
</g>
<!-- Sequence_1** -->
<g id="node29" class="node">
<title>Sequence_1**</title>
<polygon fill="orange" stroke="black" points="1885.31,-292 1817.31,-292 1817.31,-256 1885.31,-256 1885.31,-292"/>
<text text-anchor="middle" x="1851.31" y="-271.8" font-family="Times,serif" font-size="9.00">Sequence_1**</text>
</g>
<!-- Selector_0&#45;&gt;Sequence_1** -->
<g id="edge28" class="edge">
<title>Selector_0&#45;&gt;Sequence_1**</title>
<path fill="none" stroke="black" d="M1851.31,-327.7C1851.31,-319.98 1851.31,-310.71 1851.31,-302.11"/>
<polygon fill="black" stroke="black" points="1854.81,-302.1 1851.31,-292.1 1847.81,-302.1 1854.81,-302.1"/>
</g>
<!-- Sequence_1*** -->
<g id="node40" class="node">
<title>Sequence_1***</title>
<polygon fill="orange" stroke="black" points="2451.81,-292 2378.81,-292 2378.81,-256 2451.81,-256 2451.81,-292"/>
<text text-anchor="middle" x="2415.31" y="-271.8" font-family="Times,serif" font-size="9.00">Sequence_1***</text>
</g>
<!-- Selector_0&#45;&gt;Sequence_1*** -->
<g id="edge39" class="edge">
<title>Selector_0&#45;&gt;Sequence_1***</title>
<path fill="none" stroke="black" d="M1885.32,-340.78C1981.88,-328.8 2257.83,-294.55 2368.53,-280.81"/>
<polygon fill="black" stroke="black" points="2369.22,-284.25 2378.72,-279.54 2368.36,-277.3 2369.22,-284.25"/>
</g>
<!-- Sequence_1**** -->
<g id="node52" class="node">
<title>Sequence_1****</title>
<polygon fill="orange" stroke="black" points="3274.81,-292 3197.81,-292 3197.81,-256 3274.81,-256 3274.81,-292"/>
<text text-anchor="middle" x="3236.31" y="-271.8" font-family="Times,serif" font-size="9.00">Sequence_1****</text>
</g>
<!-- Selector_0&#45;&gt;Sequence_1**** -->
<g id="edge51" class="edge">
<title>Selector_0&#45;&gt;Sequence_1****</title>
<path fill="none" stroke="black" d="M1885.2,-343.29C2071.12,-333.89 2966.75,-288.62 3187.21,-277.48"/>
<polygon fill="black" stroke="black" points="3187.68,-280.96 3197.49,-276.96 3187.32,-273.97 3187.68,-280.96"/>
</g>
<!-- Sequence_2 -->
<g id="node3" class="node">
<title>Sequence_2</title>
<polygon fill="orange" stroke="black" points="320.81,-210 261.81,-210 261.81,-174 320.81,-174 320.81,-210"/>
<text text-anchor="middle" x="291.31" y="-189.8" font-family="Times,serif" font-size="9.00">Sequence_2</text>
</g>
<!-- Sequence_1&#45;&gt;Sequence_2 -->
<g id="edge2" class="edge">
<title>Sequence_1&#45;&gt;Sequence_2</title>
<path fill="none" stroke="black" d="M618.79,-266.39C554.79,-252.04 403.18,-218.07 330.93,-201.88"/>
<polygon fill="black" stroke="black" points="331.39,-198.39 320.87,-199.62 329.86,-205.22 331.39,-198.39"/>
</g>
<!-- Parallel_2 -->
<g id="node13" class="node">
<title>Parallel_2</title>
<polygon fill="gold" stroke="black" points="718.81,-220 606.66,-220 577.81,-164 689.96,-164 718.81,-220"/>
<text text-anchor="middle" x="648.31" y="-194.8" font-family="Times,serif" font-size="9.00">Parallel_2</text>
<text text-anchor="middle" x="648.31" y="-184.8" font-family="Times,serif" font-size="9.00">SuccessOnAll</text>
</g>
<!-- Sequence_1&#45;&gt;Parallel_2 -->
<g id="edge12" class="edge">
<title>Sequence_1&#45;&gt;Parallel_2</title>
<path fill="none" stroke="black" d="M648.31,-255.64C648.31,-248.18 648.31,-239.14 648.31,-230.29"/>
<polygon fill="black" stroke="black" points="651.81,-230.08 648.31,-220.08 644.81,-230.08 651.81,-230.08"/>
</g>
<!-- IsRobotAtTheSpawn_0 -->
<g id="node4" class="node">
<title>IsRobotAtTheSpawn_0</title>
<ellipse fill="gray" stroke="black" cx="58.31" cy="-100" rx="58.13" ry="18"/>
<text text-anchor="middle" x="58.31" y="-97.8" font-family="Times,serif" font-size="9.00">IsRobotAtTheSpawn_0</text>
</g>
<!-- Sequence_2&#45;&gt;IsRobotAtTheSpawn_0 -->
<g id="edge3" class="edge">
<title>Sequence_2&#45;&gt;IsRobotAtTheSpawn_0</title>
<path fill="none" stroke="black" d="M261.56,-179.91C228.28,-167.47 172.82,-146.59 125.31,-128 117.59,-124.98 109.39,-121.72 101.47,-118.54"/>
<polygon fill="black" stroke="black" points="102.58,-115.22 92,-114.73 99.97,-121.71 102.58,-115.22"/>
</g>
<!-- Inverter_3 -->
<g id="node5" class="node">
<title>Inverter_3</title>
<ellipse fill="ghostwhite" stroke="black" cx="165.31" cy="-100" rx="30.7" ry="18"/>
<text text-anchor="middle" x="165.31" y="-97.8" font-family="Times,serif" font-size="9.00">Inverter_3</text>
</g>
<!-- Sequence_2&#45;&gt;Inverter_3 -->
<g id="edge4" class="edge">
<title>Sequence_2&#45;&gt;Inverter_3</title>
<path fill="none" stroke="black" d="M267.32,-173.86C246.01,-158.64 214.89,-136.41 192.64,-120.52"/>
<polygon fill="black" stroke="black" points="194.46,-117.52 184.29,-114.55 190.39,-123.21 194.46,-117.52"/>
</g>
<!-- Inverter_3* -->
<g id="node7" class="node">
<title>Inverter_3*</title>
<ellipse fill="ghostwhite" stroke="black" cx="247.31" cy="-100" rx="33.47" ry="18"/>
<text text-anchor="middle" x="247.31" y="-97.8" font-family="Times,serif" font-size="9.00">Inverter_3*</text>
</g>
<!-- Sequence_2&#45;&gt;Inverter_3* -->
<g id="edge6" class="edge">
<title>Sequence_2&#45;&gt;Inverter_3*</title>
<path fill="none" stroke="black" d="M282.83,-173.65C276.36,-160.41 267.33,-141.95 260,-126.96"/>
<polygon fill="black" stroke="black" points="263.01,-125.14 255.47,-117.69 256.72,-128.21 263.01,-125.14"/>
</g>
<!-- Inverter_3** -->
<g id="node9" class="node">
<title>Inverter_3**</title>
<ellipse fill="ghostwhite" stroke="black" cx="334.31" cy="-100" rx="35.59" ry="18"/>
<text text-anchor="middle" x="334.31" y="-97.8" font-family="Times,serif" font-size="9.00">Inverter_3**</text>
</g>
<!-- Sequence_2&#45;&gt;Inverter_3** -->
<g id="edge8" class="edge">
<title>Sequence_2&#45;&gt;Inverter_3**</title>
<path fill="none" stroke="black" d="M299.6,-173.65C305.93,-160.41 314.75,-141.95 321.91,-126.96"/>
<polygon fill="black" stroke="black" points="325.18,-128.22 326.34,-117.69 318.87,-125.21 325.18,-128.22"/>
</g>
<!-- Inverter_3*** -->
<g id="node11" class="node">
<title>Inverter_3***</title>
<ellipse fill="ghostwhite" stroke="black" cx="426.31" cy="-100" rx="38.87" ry="18"/>
<text text-anchor="middle" x="426.31" y="-97.8" font-family="Times,serif" font-size="9.00">Inverter_3***</text>
</g>
<!-- Sequence_2&#45;&gt;Inverter_3*** -->
<g id="edge10" class="edge">
<title>Sequence_2&#45;&gt;Inverter_3***</title>
<path fill="none" stroke="black" d="M317.02,-173.86C339.68,-158.76 372.69,-136.75 396.5,-120.87"/>
<polygon fill="black" stroke="black" points="398.75,-123.58 405.13,-115.12 394.87,-117.75 398.75,-123.58"/>
</g>
<!-- AreObjectExistsOnInternalMap_0 -->
<g id="node6" class="node">
<title>AreObjectExistsOnInternalMap_0</title>
<ellipse fill="gray" stroke="black" cx="82.31" cy="-18" rx="80" ry="18"/>
<text text-anchor="middle" x="82.31" y="-15.8" font-family="Times,serif" font-size="9.00">AreObjectExistsOnInternalMap_0</text>
</g>
<!-- Inverter_3&#45;&gt;AreObjectExistsOnInternalMap_0 -->
<g id="edge5" class="edge">
<title>Inverter_3&#45;&gt;AreObjectExistsOnInternalMap_0</title>
<path fill="none" stroke="black" d="M150.09,-84.33C138.08,-72.76 121.1,-56.38 107.13,-42.92"/>
<polygon fill="black" stroke="black" points="109.37,-40.21 99.74,-35.79 104.51,-45.25 109.37,-40.21"/>
</g>
<!-- AreObjectNearby_0 -->
<g id="node8" class="node">
<title>AreObjectNearby_0</title>
<ellipse fill="gray" stroke="black" cx="232.31" cy="-18" rx="51.27" ry="18"/>
<text text-anchor="middle" x="232.31" y="-15.8" font-family="Times,serif" font-size="9.00">AreObjectNearby_0</text>
</g>
<!-- Inverter_3*&#45;&gt;AreObjectNearby_0 -->
<g id="edge7" class="edge">
<title>Inverter_3*&#45;&gt;AreObjectNearby_0</title>
<path fill="none" stroke="black" d="M244.13,-82.03C242.18,-71.6 239.63,-58.01 237.4,-46.11"/>
<polygon fill="black" stroke="black" points="240.82,-45.4 235.54,-36.22 233.94,-46.69 240.82,-45.4"/>
</g>
<!-- IsObjectInHand_0 -->
<g id="node10" class="node">
<title>IsObjectInHand_0</title>
<ellipse fill="gray" stroke="black" cx="349.31" cy="-18" rx="47.84" ry="18"/>
<text text-anchor="middle" x="349.31" y="-15.8" font-family="Times,serif" font-size="9.00">IsObjectInHand_0</text>
</g>
<!-- Inverter_3**&#45;&gt;IsObjectInHand_0 -->
<g id="edge9" class="edge">
<title>Inverter_3**&#45;&gt;IsObjectInHand_0</title>
<path fill="none" stroke="black" d="M337.49,-82.03C339.45,-71.6 342,-58.01 344.23,-46.11"/>
<polygon fill="black" stroke="black" points="347.68,-46.69 346.08,-36.22 340.8,-45.4 347.68,-46.69"/>
</g>
<!-- AreFiveObjectsAtSpawn_0 -->
<g id="node12" class="node">
<title>AreFiveObjectsAtSpawn_0</title>
<ellipse fill="gray" stroke="black" cx="482.31" cy="-18" rx="66.95" ry="18"/>
<text text-anchor="middle" x="482.31" y="-15.8" font-family="Times,serif" font-size="9.00">AreFiveObjectsAtSpawn_0</text>
</g>
<!-- Inverter_3***&#45;&gt;AreFiveObjectsAtSpawn_0 -->
<g id="edge11" class="edge">
<title>Inverter_3***&#45;&gt;AreFiveObjectsAtSpawn_0</title>
<path fill="none" stroke="black" d="M437.92,-82.42C445.67,-71.34 456.02,-56.56 464.78,-44.05"/>
<polygon fill="black" stroke="black" points="467.66,-46.03 470.53,-35.83 461.93,-42.02 467.66,-46.03"/>
</g>
<!-- PatrolNode_0 -->
<g id="node14" class="node">
<title>PatrolNode_0</title>
<ellipse fill="gray" stroke="black" cx="521.31" cy="-100" rx="38.21" ry="18"/>
<text text-anchor="middle" x="521.31" y="-97.8" font-family="Times,serif" font-size="9.00">PatrolNode_0</text>
</g>
<!-- Parallel_2&#45;&gt;PatrolNode_0 -->
<g id="edge13" class="edge">
<title>Parallel_2&#45;&gt;PatrolNode_0</title>
<path fill="none" stroke="black" d="M610.21,-164C590.87,-150.29 567.77,-133.92 549.96,-121.3"/>
<polygon fill="black" stroke="black" points="551.87,-118.36 541.69,-115.44 547.82,-124.08 551.87,-118.36"/>
</g>
<!-- Parallel_3 -->
<g id="node15" class="node">
<title>Parallel_3</title>
<polygon fill="gold" stroke="black" points="718.81,-128 606.66,-128 577.81,-72 689.96,-72 718.81,-128"/>
<text text-anchor="middle" x="648.31" y="-102.8" font-family="Times,serif" font-size="9.00">Parallel_3</text>
<text text-anchor="middle" x="648.31" y="-92.8" font-family="Times,serif" font-size="9.00">SuccessOnAll</text>
</g>
<!-- Parallel_2&#45;&gt;Parallel_3 -->
<g id="edge14" class="edge">
<title>Parallel_2&#45;&gt;Parallel_3</title>
<path fill="none" stroke="black" d="M648.31,-164C648.31,-155.97 648.31,-147.03 648.31,-138.47"/>
<polygon fill="black" stroke="black" points="651.81,-138.29 648.31,-128.29 644.81,-138.3 651.81,-138.29"/>
</g>
<!-- FindTarget_1 -->
<g id="node16" class="node">
<title>FindTarget_1</title>
<ellipse fill="gray" stroke="black" cx="774.31" cy="-100" rx="37.56" ry="18"/>
<text text-anchor="middle" x="774.31" y="-97.8" font-family="Times,serif" font-size="9.00">FindTarget_1</text>
</g>
<!-- Parallel_2&#45;&gt;FindTarget_1 -->
<g id="edge15" class="edge">
<title>Parallel_2&#45;&gt;FindTarget_1</title>
<path fill="none" stroke="black" d="M686.12,-164C705.3,-150.29 728.22,-133.92 745.89,-121.3"/>
<polygon fill="black" stroke="black" points="748,-124.1 754.1,-115.44 743.93,-118.4 748,-124.1"/>
</g>
<!-- Sequence_2* -->
<g id="node18" class="node">
<title>Sequence_2*</title>
<polygon fill="orange" stroke="black" points="1243.31,-210 1179.31,-210 1179.31,-174 1243.31,-174 1243.31,-210"/>
<text text-anchor="middle" x="1211.31" y="-189.8" font-family="Times,serif" font-size="9.00">Sequence_2*</text>
</g>
<!-- Sequence_1*&#45;&gt;Sequence_2* -->
<g id="edge17" class="edge">
<title>Sequence_1*&#45;&gt;Sequence_2*</title>
<path fill="none" stroke="black" d="M1502.16,-265.04C1443.39,-250.48 1318.68,-219.59 1253.3,-203.4"/>
<polygon fill="black" stroke="black" points="1253.88,-199.94 1243.33,-200.93 1252.2,-206.73 1253.88,-199.94"/>
</g>
<!-- GoToNearestTarget_0 -->
<g id="node28" class="node">
<title>GoToNearestTarget_0</title>
<ellipse fill="gray" stroke="black" cx="1534.31" cy="-192" rx="55.35" ry="18"/>
<text text-anchor="middle" x="1534.31" y="-189.8" font-family="Times,serif" font-size="9.00">GoToNearestTarget_0</text>
</g>
<!-- Sequence_1*&#45;&gt;GoToNearestTarget_0 -->
<g id="edge27" class="edge">
<title>Sequence_1*&#45;&gt;GoToNearestTarget_0</title>
<path fill="none" stroke="black" d="M1534.31,-255.64C1534.31,-245.3 1534.31,-231.94 1534.31,-220.22"/>
<polygon fill="black" stroke="black" points="1537.81,-220.05 1534.31,-210.05 1530.81,-220.05 1537.81,-220.05"/>
</g>
<!-- Inverter_3**** -->
<g id="node19" class="node">
<title>Inverter_3****</title>
<ellipse fill="ghostwhite" stroke="black" cx="871.31" cy="-100" rx="40.98" ry="18"/>
<text text-anchor="middle" x="871.31" y="-97.8" font-family="Times,serif" font-size="9.00">Inverter_3****</text>
</g>
<!-- Sequence_2*&#45;&gt;Inverter_3**** -->
<g id="edge18" class="edge">
<title>Sequence_2*&#45;&gt;Inverter_3****</title>
<path fill="none" stroke="black" d="M1179.16,-187.03C1124.76,-179.65 1011.67,-161.45 921.31,-128 915.24,-125.75 909,-122.88 903.07,-119.86"/>
<polygon fill="black" stroke="black" points="904.55,-116.68 894.08,-115.04 901.24,-122.85 904.55,-116.68"/>
</g>
<!-- AreObjectExistsOnInternalMap_0* -->
<g id="node21" class="node">
<title>AreObjectExistsOnInternalMap_0*</title>
<ellipse fill="gray" stroke="black" cx="1013.31" cy="-100" rx="82.62" ry="18"/>
<text text-anchor="middle" x="1013.31" y="-97.8" font-family="Times,serif" font-size="9.00">AreObjectExistsOnInternalMap_0*</text>
</g>
<!-- Sequence_2*&#45;&gt;AreObjectExistsOnInternalMap_0* -->
<g id="edge20" class="edge">
<title>Sequence_2*&#45;&gt;AreObjectExistsOnInternalMap_0*</title>
<path fill="none" stroke="black" d="M1179.06,-176.34C1145.86,-161.25 1093.93,-137.64 1057.05,-120.88"/>
<polygon fill="black" stroke="black" points="1058.1,-117.51 1047.55,-116.56 1055.2,-123.88 1058.1,-117.51"/>
</g>
<!-- Inverter_3***** -->
<g id="node22" class="node">
<title>Inverter_3*****</title>
<ellipse fill="ghostwhite" stroke="black" cx="1157.31" cy="-100" rx="43.76" ry="18"/>
<text text-anchor="middle" x="1157.31" y="-97.8" font-family="Times,serif" font-size="9.00">Inverter_3*****</text>
</g>
<!-- Sequence_2*&#45;&gt;Inverter_3***** -->
<g id="edge21" class="edge">
<title>Sequence_2*&#45;&gt;Inverter_3*****</title>
<path fill="none" stroke="black" d="M1200.9,-173.65C1192.88,-160.28 1181.67,-141.6 1172.63,-126.53"/>
<polygon fill="black" stroke="black" points="1175.47,-124.47 1167.33,-117.69 1169.47,-128.07 1175.47,-124.47"/>
</g>
<!-- Inverter_3****** -->
<g id="node24" class="node">
<title>Inverter_3******</title>
<ellipse fill="ghostwhite" stroke="black" cx="1265.31" cy="-100" rx="46.38" ry="18"/>
<text text-anchor="middle" x="1265.31" y="-97.8" font-family="Times,serif" font-size="9.00">Inverter_3******</text>
</g>
<!-- Sequence_2*&#45;&gt;Inverter_3****** -->
<g id="edge23" class="edge">
<title>Sequence_2*&#45;&gt;Inverter_3******</title>
<path fill="none" stroke="black" d="M1221.72,-173.65C1229.74,-160.28 1240.95,-141.6 1250,-126.53"/>
<polygon fill="black" stroke="black" points="1253.15,-128.07 1255.3,-117.69 1247.15,-124.47 1253.15,-128.07"/>
</g>
<!-- Inverter_3******* -->
<g id="node26" class="node">
<title>Inverter_3*******</title>
<ellipse fill="ghostwhite" stroke="black" cx="1378.31" cy="-100" rx="49.15" ry="18"/>
<text text-anchor="middle" x="1378.31" y="-97.8" font-family="Times,serif" font-size="9.00">Inverter_3*******</text>
</g>
<!-- Sequence_2*&#45;&gt;Inverter_3******* -->
<g id="edge25" class="edge">
<title>Sequence_2*&#45;&gt;Inverter_3*******</title>
<path fill="none" stroke="black" d="M1243.12,-173.86C1271.55,-158.53 1313.18,-136.1 1342.71,-120.18"/>
<polygon fill="black" stroke="black" points="1344.71,-123.09 1351.85,-115.26 1341.39,-116.93 1344.71,-123.09"/>
</g>
<!-- IsRobotAtTheSpawn_0* -->
<g id="node20" class="node">
<title>IsRobotAtTheSpawn_0*</title>
<ellipse fill="gray" stroke="black" cx="871.31" cy="-18" rx="61.4" ry="18"/>
<text text-anchor="middle" x="871.31" y="-15.8" font-family="Times,serif" font-size="9.00">IsRobotAtTheSpawn_0*</text>
</g>
<!-- Inverter_3****&#45;&gt;IsRobotAtTheSpawn_0* -->
<g id="edge19" class="edge">
<title>Inverter_3****&#45;&gt;IsRobotAtTheSpawn_0*</title>
<path fill="none" stroke="black" d="M871.31,-81.64C871.31,-71.3 871.31,-57.94 871.31,-46.22"/>
<polygon fill="black" stroke="black" points="874.81,-46.05 871.31,-36.05 867.81,-46.05 874.81,-46.05"/>
</g>
<!-- AreObjectNearby_0* -->
<g id="node23" class="node">
<title>AreObjectNearby_0*</title>
<ellipse fill="gray" stroke="black" cx="1131.31" cy="-18" rx="53.89" ry="18"/>
<text text-anchor="middle" x="1131.31" y="-15.8" font-family="Times,serif" font-size="9.00">AreObjectNearby_0*</text>
</g>
<!-- Inverter_3*****&#45;&gt;AreObjectNearby_0* -->
<g id="edge22" class="edge">
<title>Inverter_3*****&#45;&gt;AreObjectNearby_0*</title>
<path fill="none" stroke="black" d="M1151.8,-82.03C1148.35,-71.43 1143.84,-57.54 1139.93,-45.51"/>
<polygon fill="black" stroke="black" points="1143.24,-44.37 1136.82,-35.94 1136.58,-46.53 1143.24,-44.37"/>
</g>
<!-- IsObjectInHand_0* -->
<g id="node25" class="node">
<title>IsObjectInHand_0*</title>
<ellipse fill="gray" stroke="black" cx="1253.31" cy="-18" rx="50.46" ry="18"/>
<text text-anchor="middle" x="1253.31" y="-15.8" font-family="Times,serif" font-size="9.00">IsObjectInHand_0*</text>
</g>
<!-- Inverter_3******&#45;&gt;IsObjectInHand_0* -->
<g id="edge24" class="edge">
<title>Inverter_3******&#45;&gt;IsObjectInHand_0*</title>
<path fill="none" stroke="black" d="M1262.71,-81.64C1261.16,-71.3 1259.15,-57.94 1257.4,-46.22"/>
<polygon fill="black" stroke="black" points="1260.81,-45.42 1255.87,-36.05 1253.89,-46.46 1260.81,-45.42"/>
</g>
<!-- AreFiveObjectsAtSpawn_0* -->
<g id="node27" class="node">
<title>AreFiveObjectsAtSpawn_0*</title>
<ellipse fill="gray" stroke="black" cx="1391.31" cy="-18" rx="69.06" ry="18"/>
<text text-anchor="middle" x="1391.31" y="-15.8" font-family="Times,serif" font-size="9.00">AreFiveObjectsAtSpawn_0*</text>
</g>
<!-- Inverter_3*******&#45;&gt;AreFiveObjectsAtSpawn_0* -->
<g id="edge26" class="edge">
<title>Inverter_3*******&#45;&gt;AreFiveObjectsAtSpawn_0*</title>
<path fill="none" stroke="black" d="M1381.13,-81.64C1382.81,-71.3 1384.98,-57.94 1386.89,-46.22"/>
<polygon fill="black" stroke="black" points="1390.39,-46.48 1388.54,-36.05 1383.48,-45.36 1390.39,-46.48"/>
</g>
<!-- Sequence_2** -->
<g id="node30" class="node">
<title>Sequence_2**</title>
<polygon fill="orange" stroke="black" points="1840.31,-210 1772.31,-210 1772.31,-174 1840.31,-174 1840.31,-210"/>
<text text-anchor="middle" x="1806.31" y="-189.8" font-family="Times,serif" font-size="9.00">Sequence_2**</text>
</g>
<!-- Sequence_1**&#45;&gt;Sequence_2** -->
<g id="edge29" class="edge">
<title>Sequence_1**&#45;&gt;Sequence_2**</title>
<path fill="none" stroke="black" d="M1841.55,-255.64C1835.49,-244.87 1827.6,-230.85 1820.82,-218.79"/>
<polygon fill="black" stroke="black" points="1823.86,-217.05 1815.9,-210.05 1817.76,-220.48 1823.86,-217.05"/>
</g>
<!-- PickObject_0 -->
<g id="node39" class="node">
<title>PickObject_0</title>
<ellipse fill="gray" stroke="black" cx="1896.31" cy="-192" rx="37.56" ry="18"/>
<text text-anchor="middle" x="1896.31" y="-189.8" font-family="Times,serif" font-size="9.00">PickObject_0</text>
</g>
<!-- Sequence_1**&#45;&gt;PickObject_0 -->
<g id="edge38" class="edge">
<title>Sequence_1**&#45;&gt;PickObject_0</title>
<path fill="none" stroke="black" d="M1861.08,-255.64C1867.22,-244.73 1875.24,-230.46 1882.08,-218.3"/>
<polygon fill="black" stroke="black" points="1885.18,-219.94 1887.03,-209.5 1879.08,-216.5 1885.18,-219.94"/>
</g>
<!-- Inverter_3******** -->
<g id="node31" class="node">
<title>Inverter_3********</title>
<ellipse fill="ghostwhite" stroke="black" cx="1496.31" cy="-100" rx="51.27" ry="18"/>
<text text-anchor="middle" x="1496.31" y="-97.8" font-family="Times,serif" font-size="9.00">Inverter_3********</text>
</g>
<!-- Sequence_2**&#45;&gt;Inverter_3******** -->
<g id="edge30" class="edge">
<title>Sequence_2**&#45;&gt;Inverter_3********</title>
<path fill="none" stroke="black" d="M1771.95,-184.23C1723.42,-174.23 1632.34,-153.89 1557.31,-128 1549.77,-125.4 1541.87,-122.24 1534.35,-119.01"/>
<polygon fill="black" stroke="black" points="1535.64,-115.76 1525.08,-114.93 1532.82,-122.16 1535.64,-115.76"/>
</g>
<!-- AreObjectExistsOnInternalMap_0** -->
<g id="node33" class="node">
<title>AreObjectExistsOnInternalMap_0**</title>
<ellipse fill="gray" stroke="black" cx="1651.31" cy="-100" rx="85.4" ry="18"/>
<text text-anchor="middle" x="1651.31" y="-97.8" font-family="Times,serif" font-size="9.00">AreObjectExistsOnInternalMap_0**</text>
</g>
<!-- Sequence_2**&#45;&gt;AreObjectExistsOnInternalMap_0** -->
<g id="edge32" class="edge">
<title>Sequence_2**&#45;&gt;AreObjectExistsOnInternalMap_0**</title>
<path fill="none" stroke="black" d="M1776.79,-173.86C1751.54,-159.2 1715.08,-138.03 1687.97,-122.28"/>
<polygon fill="black" stroke="black" points="1689.56,-119.16 1679.16,-117.17 1686.05,-125.22 1689.56,-119.16"/>
</g>
<!-- AreObjectNearby_1 -->
<g id="node34" class="node">
<title>AreObjectNearby_1</title>
<ellipse fill="gray" stroke="black" cx="1806.31" cy="-100" rx="51.27" ry="18"/>
<text text-anchor="middle" x="1806.31" y="-97.8" font-family="Times,serif" font-size="9.00">AreObjectNearby_1</text>
</g>
<!-- Sequence_2**&#45;&gt;AreObjectNearby_1 -->
<g id="edge33" class="edge">
<title>Sequence_2**&#45;&gt;AreObjectNearby_1</title>
<path fill="none" stroke="black" d="M1806.31,-173.65C1806.31,-160.82 1806.31,-143.11 1806.31,-128.38"/>
<polygon fill="black" stroke="black" points="1809.81,-128.3 1806.31,-118.3 1802.81,-128.3 1809.81,-128.3"/>
</g>
<!-- Inverter_3********* -->
<g id="node35" class="node">
<title>Inverter_3*********</title>
<ellipse fill="ghostwhite" stroke="black" cx="1930.31" cy="-100" rx="54.04" ry="18"/>
<text text-anchor="middle" x="1930.31" y="-97.8" font-family="Times,serif" font-size="9.00">Inverter_3*********</text>
</g>
<!-- Sequence_2**&#45;&gt;Inverter_3********* -->
<g id="edge34" class="edge">
<title>Sequence_2**&#45;&gt;Inverter_3*********</title>
<path fill="none" stroke="black" d="M1829.93,-173.86C1850.03,-159.27 1879,-138.24 1900.66,-122.52"/>
<polygon fill="black" stroke="black" points="1902.82,-125.28 1908.86,-116.57 1898.71,-119.61 1902.82,-125.28"/>
</g>
<!-- Inverter_3********** -->
<g id="node37" class="node">
<title>Inverter_3**********</title>
<ellipse fill="ghostwhite" stroke="black" cx="2059.31" cy="-100" rx="56.66" ry="18"/>
<text text-anchor="middle" x="2059.31" y="-97.8" font-family="Times,serif" font-size="9.00">Inverter_3**********</text>
</g>
<!-- Sequence_2**&#45;&gt;Inverter_3********** -->
<g id="edge36" class="edge">
<title>Sequence_2**&#45;&gt;Inverter_3**********</title>
<path fill="none" stroke="black" d="M1830.6,-173.9C1836.52,-170.25 1842.99,-166.7 1849.31,-164 1910,-138.14 1930.62,-148.54 1993.31,-128 2001.51,-125.31 2010.14,-122.09 2018.36,-118.81"/>
<polygon fill="black" stroke="black" points="2019.83,-122 2027.76,-114.98 2017.18,-115.51 2019.83,-122"/>
</g>
<!-- IsRobotAtTheSpawn_0** -->
<g id="node32" class="node">
<title>IsRobotAtTheSpawn_0**</title>
<ellipse fill="gray" stroke="black" cx="1542.31" cy="-18" rx="63.52" ry="18"/>
<text text-anchor="middle" x="1542.31" y="-15.8" font-family="Times,serif" font-size="9.00">IsRobotAtTheSpawn_0**</text>
</g>
<!-- Inverter_3********&#45;&gt;IsRobotAtTheSpawn_0** -->
<g id="edge31" class="edge">
<title>Inverter_3********&#45;&gt;IsRobotAtTheSpawn_0**</title>
<path fill="none" stroke="black" d="M1506.07,-82.03C1512.29,-71.22 1520.47,-56.99 1527.49,-44.79"/>
<polygon fill="black" stroke="black" points="1530.62,-46.36 1532.57,-35.94 1524.55,-42.87 1530.62,-46.36"/>
</g>
<!-- IsObjectInHand_0** -->
<g id="node36" class="node">
<title>IsObjectInHand_0**</title>
<ellipse fill="gray" stroke="black" cx="1904.31" cy="-18" rx="53.23" ry="18"/>
<text text-anchor="middle" x="1904.31" y="-15.8" font-family="Times,serif" font-size="9.00">IsObjectInHand_0**</text>
</g>
<!-- Inverter_3*********&#45;&gt;IsObjectInHand_0** -->
<g id="edge35" class="edge">
<title>Inverter_3*********&#45;&gt;IsObjectInHand_0**</title>
<path fill="none" stroke="black" d="M1924.8,-82.03C1921.35,-71.43 1916.84,-57.54 1912.93,-45.51"/>
<polygon fill="black" stroke="black" points="1916.24,-44.37 1909.82,-35.94 1909.58,-46.53 1916.24,-44.37"/>
</g>
<!-- AreFiveObjectsAtSpawn_0** -->
<g id="node38" class="node">
<title>AreFiveObjectsAtSpawn_0**</title>
<ellipse fill="gray" stroke="black" cx="2047.31" cy="-18" rx="72.34" ry="18"/>
<text text-anchor="middle" x="2047.31" y="-15.8" font-family="Times,serif" font-size="9.00">AreFiveObjectsAtSpawn_0**</text>
</g>
<!-- Inverter_3**********&#45;&gt;AreFiveObjectsAtSpawn_0** -->
<g id="edge37" class="edge">
<title>Inverter_3**********&#45;&gt;AreFiveObjectsAtSpawn_0**</title>
<path fill="none" stroke="black" d="M2056.71,-81.64C2055.16,-71.3 2053.15,-57.94 2051.4,-46.22"/>
<polygon fill="black" stroke="black" points="2054.81,-45.42 2049.87,-36.05 2047.89,-46.46 2054.81,-45.42"/>
</g>
<!-- Sequence_2*** -->
<g id="node41" class="node">
<title>Sequence_2***</title>
<polygon fill="orange" stroke="black" points="2451.81,-210 2378.81,-210 2378.81,-174 2451.81,-174 2451.81,-210"/>
<text text-anchor="middle" x="2415.31" y="-189.8" font-family="Times,serif" font-size="9.00">Sequence_2***</text>
</g>
<!-- Sequence_1***&#45;&gt;Sequence_2*** -->
<g id="edge40" class="edge">
<title>Sequence_1***&#45;&gt;Sequence_2***</title>
<path fill="none" stroke="black" d="M2415.31,-255.64C2415.31,-245.3 2415.31,-231.94 2415.31,-220.22"/>
<polygon fill="black" stroke="black" points="2418.81,-220.05 2415.31,-210.05 2411.81,-220.05 2418.81,-220.05"/>
</g>
<!-- GoToSpawnNode_0 -->
<g id="node51" class="node">
<title>GoToSpawnNode_0</title>
<ellipse fill="gray" stroke="black" cx="2522.31" cy="-192" rx="52.58" ry="18"/>
<text text-anchor="middle" x="2522.31" y="-189.8" font-family="Times,serif" font-size="9.00">GoToSpawnNode_0</text>
</g>
<!-- Sequence_1***&#45;&gt;GoToSpawnNode_0 -->
<g id="edge50" class="edge">
<title>Sequence_1***&#45;&gt;GoToSpawnNode_0</title>
<path fill="none" stroke="black" d="M2438.27,-255.84C2454.31,-243.84 2475.86,-227.73 2493.13,-214.82"/>
<polygon fill="black" stroke="black" points="2495.3,-217.57 2501.21,-208.78 2491.11,-211.96 2495.3,-217.57"/>
</g>
<!-- Inverter_3*********** -->
<g id="node42" class="node">
<title>Inverter_3***********</title>
<ellipse fill="ghostwhite" stroke="black" cx="2204.31" cy="-100" rx="59.43" ry="18"/>
<text text-anchor="middle" x="2204.31" y="-97.8" font-family="Times,serif" font-size="9.00">Inverter_3***********</text>
</g>
<!-- Sequence_2***&#45;&gt;Inverter_3*********** -->
<g id="edge41" class="edge">
<title>Sequence_2***&#45;&gt;Inverter_3***********</title>
<path fill="none" stroke="black" d="M2378.56,-175.32C2341.77,-159.63 2285.22,-135.51 2246.59,-119.03"/>
<polygon fill="black" stroke="black" points="2247.75,-115.72 2237.18,-115.02 2245,-122.16 2247.75,-115.72"/>
</g>
<!-- Inverter_3************ -->
<g id="node44" class="node">
<title>Inverter_3************</title>
<ellipse fill="ghostwhite" stroke="black" cx="2343.31" cy="-100" rx="61.55" ry="18"/>
<text text-anchor="middle" x="2343.31" y="-97.8" font-family="Times,serif" font-size="9.00">Inverter_3************</text>
</g>
<!-- Sequence_2***&#45;&gt;Inverter_3************ -->
<g id="edge43" class="edge">
<title>Sequence_2***&#45;&gt;Inverter_3************</title>
<path fill="none" stroke="black" d="M2401.43,-173.65C2390.53,-160.03 2375.23,-140.89 2363.06,-125.68"/>
<polygon fill="black" stroke="black" points="2365.65,-123.31 2356.67,-117.69 2360.18,-127.69 2365.65,-123.31"/>
</g>
<!-- Inverter_3************* -->
<g id="node46" class="node">
<title>Inverter_3*************</title>
<ellipse fill="ghostwhite" stroke="black" cx="2487.31" cy="-100" rx="64.83" ry="18"/>
<text text-anchor="middle" x="2487.31" y="-97.8" font-family="Times,serif" font-size="9.00">Inverter_3*************</text>
</g>
<!-- Sequence_2***&#45;&gt;Inverter_3************* -->
<g id="edge45" class="edge">
<title>Sequence_2***&#45;&gt;Inverter_3*************</title>
<path fill="none" stroke="black" d="M2429.19,-173.65C2440.09,-160.03 2455.4,-140.89 2467.57,-125.68"/>
<polygon fill="black" stroke="black" points="2470.45,-127.69 2473.96,-117.69 2464.98,-123.31 2470.45,-127.69"/>
</g>
<!-- IsObjectInHand_0*** -->
<g id="node48" class="node">
<title>IsObjectInHand_0***</title>
<ellipse fill="gray" stroke="black" cx="2625.31" cy="-100" rx="55.35" ry="18"/>
<text text-anchor="middle" x="2625.31" y="-97.8" font-family="Times,serif" font-size="9.00">IsObjectInHand_0***</text>
</g>
<!-- Sequence_2***&#45;&gt;IsObjectInHand_0*** -->
<g id="edge47" class="edge">
<title>Sequence_2***&#45;&gt;IsObjectInHand_0***</title>
<path fill="none" stroke="black" d="M2441.96,-173.83C2447.88,-170.35 2454.22,-166.88 2460.31,-164 2503.4,-143.64 2516.9,-145.27 2561.31,-128 2568.74,-125.11 2576.6,-121.92 2584.17,-118.76"/>
<polygon fill="black" stroke="black" points="2585.69,-121.92 2593.56,-114.82 2582.98,-115.47 2585.69,-121.92"/>
</g>
<!-- Inverter_3************** -->
<g id="node49" class="node">
<title>Inverter_3**************</title>
<ellipse fill="ghostwhite" stroke="black" cx="2765.31" cy="-100" rx="66.95" ry="18"/>
<text text-anchor="middle" x="2765.31" y="-97.8" font-family="Times,serif" font-size="9.00">Inverter_3**************</text>
</g>
<!-- Sequence_2***&#45;&gt;Inverter_3************** -->
<g id="edge48" class="edge">
<title>Sequence_2***&#45;&gt;Inverter_3**************</title>
<path fill="none" stroke="black" d="M2440.16,-173.79C2446.5,-170.06 2453.46,-166.49 2460.31,-164 2557.16,-128.85 2589.45,-153.35 2689.31,-128 2699.29,-125.47 2709.8,-122.16 2719.72,-118.74"/>
<polygon fill="black" stroke="black" points="2721.15,-121.95 2729.4,-115.3 2718.8,-115.35 2721.15,-121.95"/>
</g>
<!-- IsRobotAtTheSpawn_0*** -->
<g id="node43" class="node">
<title>IsRobotAtTheSpawn_0***</title>
<ellipse fill="gray" stroke="black" cx="2204.31" cy="-18" rx="66.29" ry="18"/>
<text text-anchor="middle" x="2204.31" y="-15.8" font-family="Times,serif" font-size="9.00">IsRobotAtTheSpawn_0***</text>
</g>
<!-- Inverter_3***********&#45;&gt;IsRobotAtTheSpawn_0*** -->
<g id="edge42" class="edge">
<title>Inverter_3***********&#45;&gt;IsRobotAtTheSpawn_0***</title>
<path fill="none" stroke="black" d="M2204.31,-81.64C2204.31,-71.3 2204.31,-57.94 2204.31,-46.22"/>
<polygon fill="black" stroke="black" points="2207.81,-46.05 2204.31,-36.05 2200.81,-46.05 2207.81,-46.05"/>
</g>
<!-- AreObjectExistsOnInternalMap_0*** -->
<g id="node45" class="node">
<title>AreObjectExistsOnInternalMap_0***</title>
<ellipse fill="gray" stroke="black" cx="2376.31" cy="-18" rx="87.52" ry="18"/>
<text text-anchor="middle" x="2376.31" y="-15.8" font-family="Times,serif" font-size="9.00">AreObjectExistsOnInternalMap_0***</text>
</g>
<!-- Inverter_3************&#45;&gt;AreObjectExistsOnInternalMap_0*** -->
<g id="edge44" class="edge">
<title>Inverter_3************&#45;&gt;AreObjectExistsOnInternalMap_0***</title>
<path fill="none" stroke="black" d="M2350.31,-82.03C2354.66,-71.5 2360.34,-57.73 2365.28,-45.75"/>
<polygon fill="black" stroke="black" points="2368.63,-46.8 2369.21,-36.22 2362.16,-44.13 2368.63,-46.8"/>
</g>
<!-- AreObjectNearby_0** -->
<g id="node47" class="node">
<title>AreObjectNearby_0**</title>
<ellipse fill="gray" stroke="black" cx="2538.31" cy="-18" rx="56.66" ry="18"/>
<text text-anchor="middle" x="2538.31" y="-15.8" font-family="Times,serif" font-size="9.00">AreObjectNearby_0**</text>
</g>
<!-- Inverter_3*************&#45;&gt;AreObjectNearby_0** -->
<g id="edge46" class="edge">
<title>Inverter_3*************&#45;&gt;AreObjectNearby_0**</title>
<path fill="none" stroke="black" d="M2498.13,-82.03C2505.09,-71.11 2514.27,-56.71 2522.1,-44.43"/>
<polygon fill="black" stroke="black" points="2525.09,-46.26 2527.51,-35.94 2519.19,-42.49 2525.09,-46.26"/>
</g>
<!-- AreFiveObjectsAtSpawn_0*** -->
<g id="node50" class="node">
<title>AreFiveObjectsAtSpawn_0***</title>
<ellipse fill="gray" stroke="black" cx="2765.31" cy="-18" rx="74.46" ry="18"/>
<text text-anchor="middle" x="2765.31" y="-15.8" font-family="Times,serif" font-size="9.00">AreFiveObjectsAtSpawn_0***</text>
</g>
<!-- Inverter_3**************&#45;&gt;AreFiveObjectsAtSpawn_0*** -->
<g id="edge49" class="edge">
<title>Inverter_3**************&#45;&gt;AreFiveObjectsAtSpawn_0***</title>
<path fill="none" stroke="black" d="M2765.31,-81.64C2765.31,-71.3 2765.31,-57.94 2765.31,-46.22"/>
<polygon fill="black" stroke="black" points="2768.81,-46.05 2765.31,-36.05 2761.81,-46.05 2768.81,-46.05"/>
</g>
<!-- Sequence_2**** -->
<g id="node53" class="node">
<title>Sequence_2****</title>
<polygon fill="orange" stroke="black" points="3274.81,-210 3197.81,-210 3197.81,-174 3274.81,-174 3274.81,-210"/>
<text text-anchor="middle" x="3236.31" y="-189.8" font-family="Times,serif" font-size="9.00">Sequence_2****</text>
</g>
<!-- Sequence_1****&#45;&gt;Sequence_2**** -->
<g id="edge52" class="edge">
<title>Sequence_1****&#45;&gt;Sequence_2****</title>
<path fill="none" stroke="black" d="M3236.31,-255.64C3236.31,-245.3 3236.31,-231.94 3236.31,-220.22"/>
<polygon fill="black" stroke="black" points="3239.81,-220.05 3236.31,-210.05 3232.81,-220.05 3239.81,-220.05"/>
</g>
<!-- Sequence_2***** -->
<g id="node62" class="node">
<title>Sequence_2*****</title>
<polygon fill="orange" stroke="black" points="3688.31,-210 3606.31,-210 3606.31,-174 3688.31,-174 3688.31,-210"/>
<text text-anchor="middle" x="3647.31" y="-189.8" font-family="Times,serif" font-size="9.00">Sequence_2*****</text>
</g>
<!-- Sequence_1****&#45;&gt;Sequence_2***** -->
<g id="edge61" class="edge">
<title>Sequence_1****&#45;&gt;Sequence_2*****</title>
<path fill="none" stroke="black" d="M3274.98,-265.47C3349.41,-250.99 3512.59,-219.22 3596.01,-202.99"/>
<polygon fill="black" stroke="black" points="3596.87,-206.38 3606.02,-201.04 3595.53,-199.51 3596.87,-206.38"/>
</g>
<!-- IsRobotAtTheSpawn_0**** -->
<g id="node54" class="node">
<title>IsRobotAtTheSpawn_0****</title>
<ellipse fill="gray" stroke="black" cx="2919.31" cy="-100" rx="68.91" ry="18"/>
<text text-anchor="middle" x="2919.31" y="-97.8" font-family="Times,serif" font-size="9.00">IsRobotAtTheSpawn_0****</text>
</g>
<!-- Sequence_2****&#45;&gt;IsRobotAtTheSpawn_0**** -->
<g id="edge53" class="edge">
<title>Sequence_2****&#45;&gt;IsRobotAtTheSpawn_0****</title>
<path fill="none" stroke="black" d="M3197.56,-181.74C3150.08,-170.18 3067.3,-149.31 2997.31,-128 2987.65,-125.06 2977.39,-121.69 2967.6,-118.35"/>
<polygon fill="black" stroke="black" points="2968.6,-114.99 2958,-115.04 2966.32,-121.61 2968.6,-114.99"/>
</g>
<!-- Inverter_3*************** -->
<g id="node55" class="node">
<title>Inverter_3***************</title>
<ellipse fill="ghostwhite" stroke="black" cx="3076.31" cy="-100" rx="69.72" ry="18"/>
<text text-anchor="middle" x="3076.31" y="-97.8" font-family="Times,serif" font-size="9.00">Inverter_3***************</text>
</g>
<!-- Sequence_2****&#45;&gt;Inverter_3*************** -->
<g id="edge54" class="edge">
<title>Sequence_2****&#45;&gt;Inverter_3***************</title>
<path fill="none" stroke="black" d="M3205.84,-173.86C3179.33,-158.95 3140.86,-137.31 3112.74,-121.49"/>
<polygon fill="black" stroke="black" points="3114.43,-118.42 3104,-116.57 3111,-124.53 3114.43,-118.42"/>
</g>
<!-- Inverter_3**************** -->
<g id="node57" class="node">
<title>Inverter_3****************</title>
<ellipse fill="ghostwhite" stroke="black" cx="3236.31" cy="-100" rx="72.34" ry="18"/>
<text text-anchor="middle" x="3236.31" y="-97.8" font-family="Times,serif" font-size="9.00">Inverter_3****************</text>
</g>
<!-- Sequence_2****&#45;&gt;Inverter_3**************** -->
<g id="edge56" class="edge">
<title>Sequence_2****&#45;&gt;Inverter_3****************</title>
<path fill="none" stroke="black" d="M3236.31,-173.65C3236.31,-160.82 3236.31,-143.11 3236.31,-128.38"/>
<polygon fill="black" stroke="black" points="3239.81,-128.3 3236.31,-118.3 3232.81,-128.3 3239.81,-128.3"/>
</g>
<!-- IsObjectInHand_1 -->
<g id="node59" class="node">
<title>IsObjectInHand_1</title>
<ellipse fill="gray" stroke="black" cx="3374.31" cy="-100" rx="47.84" ry="18"/>
<text text-anchor="middle" x="3374.31" y="-97.8" font-family="Times,serif" font-size="9.00">IsObjectInHand_1</text>
</g>
<!-- Sequence_2****&#45;&gt;IsObjectInHand_1 -->
<g id="edge58" class="edge">
<title>Sequence_2****&#45;&gt;IsObjectInHand_1</title>
<path fill="none" stroke="black" d="M3262.59,-173.86C3285.44,-158.96 3318.58,-137.35 3342.84,-121.53"/>
<polygon fill="black" stroke="black" points="3344.87,-124.38 3351.34,-115.98 3341.05,-118.52 3344.87,-124.38"/>
</g>
<!-- Inverter_3***************** -->
<g id="node60" class="node">
<title>Inverter_3*****************</title>
<ellipse fill="ghostwhite" stroke="black" cx="3515.31" cy="-100" rx="75.11" ry="18"/>
<text text-anchor="middle" x="3515.31" y="-97.8" font-family="Times,serif" font-size="9.00">Inverter_3*****************</text>
</g>
<!-- Sequence_2****&#45;&gt;Inverter_3***************** -->
<g id="edge59" class="edge">
<title>Sequence_2****&#45;&gt;Inverter_3*****************</title>
<path fill="none" stroke="black" d="M3274.81,-178.58C3323.61,-162.84 3407.93,-135.64 3462.65,-117.99"/>
<polygon fill="black" stroke="black" points="3463.73,-121.32 3472.17,-114.92 3461.58,-114.65 3463.73,-121.32"/>
</g>
<!-- AreObjectExistsOnInternalMap_0**** -->
<g id="node56" class="node">
<title>AreObjectExistsOnInternalMap_0****</title>
<ellipse fill="gray" stroke="black" cx="3072.31" cy="-18" rx="90.79" ry="18"/>
<text text-anchor="middle" x="3072.31" y="-15.8" font-family="Times,serif" font-size="9.00">AreObjectExistsOnInternalMap_0****</text>
</g>
<!-- Inverter_3***************&#45;&gt;AreObjectExistsOnInternalMap_0**** -->
<g id="edge55" class="edge">
<title>Inverter_3***************&#45;&gt;AreObjectExistsOnInternalMap_0****</title>
<path fill="none" stroke="black" d="M3075.44,-81.64C3074.93,-71.3 3074.26,-57.94 3073.67,-46.22"/>
<polygon fill="black" stroke="black" points="3077.16,-45.86 3073.16,-36.05 3070.17,-46.21 3077.16,-45.86"/>
</g>
<!-- AreObjectNearby_0*** -->
<g id="node58" class="node">
<title>AreObjectNearby_0***</title>
<ellipse fill="gray" stroke="black" cx="3240.31" cy="-18" rx="58.78" ry="18"/>
<text text-anchor="middle" x="3240.31" y="-15.8" font-family="Times,serif" font-size="9.00">AreObjectNearby_0***</text>
</g>
<!-- Inverter_3****************&#45;&gt;AreObjectNearby_0*** -->
<g id="edge57" class="edge">
<title>Inverter_3****************&#45;&gt;AreObjectNearby_0***</title>
<path fill="none" stroke="black" d="M3237.18,-81.64C3237.7,-71.3 3238.37,-57.94 3238.95,-46.22"/>
<polygon fill="black" stroke="black" points="3242.46,-46.21 3239.46,-36.05 3235.46,-45.86 3242.46,-46.21"/>
</g>
<!-- AreFiveObjectsAtSpawn_0**** -->
<g id="node61" class="node">
<title>AreFiveObjectsAtSpawn_0****</title>
<ellipse fill="gray" stroke="black" cx="3515.31" cy="-18" rx="77.23" ry="18"/>
<text text-anchor="middle" x="3515.31" y="-15.8" font-family="Times,serif" font-size="9.00">AreFiveObjectsAtSpawn_0****</text>
</g>
<!-- Inverter_3*****************&#45;&gt;AreFiveObjectsAtSpawn_0**** -->
<g id="edge60" class="edge">
<title>Inverter_3*****************&#45;&gt;AreFiveObjectsAtSpawn_0****</title>
<path fill="none" stroke="black" d="M3515.31,-81.64C3515.31,-71.3 3515.31,-57.94 3515.31,-46.22"/>
<polygon fill="black" stroke="black" points="3518.81,-46.05 3515.31,-36.05 3511.81,-46.05 3518.81,-46.05"/>
</g>
<!-- DropObject_0 -->
<g id="node63" class="node">
<title>DropObject_0</title>
<ellipse fill="gray" stroke="black" cx="3647.31" cy="-100" rx="39.02" ry="18"/>
<text text-anchor="middle" x="3647.31" y="-97.8" font-family="Times,serif" font-size="9.00">DropObject_0</text>
</g>
<!-- Sequence_2*****&#45;&gt;DropObject_0 -->
<g id="edge62" class="edge">
<title>Sequence_2*****&#45;&gt;DropObject_0</title>
<path fill="none" stroke="black" d="M3647.31,-173.65C3647.31,-160.82 3647.31,-143.11 3647.31,-128.38"/>
<polygon fill="black" stroke="black" points="3650.81,-128.3 3647.31,-118.3 3643.81,-128.3 3650.81,-128.3"/>
</g>
<!-- FindTarget_1* -->
<g id="node64" class="node">
<title>FindTarget_1*</title>
<ellipse fill="gray" stroke="black" cx="3744.31" cy="-100" rx="39.68" ry="18"/>
<text text-anchor="middle" x="3744.31" y="-97.8" font-family="Times,serif" font-size="9.00">FindTarget_1*</text>
</g>
<!-- Sequence_2*****&#45;&gt;FindTarget_1* -->
<g id="edge63" class="edge">
<title>Sequence_2*****&#45;&gt;FindTarget_1*</title>
<path fill="none" stroke="black" d="M3666.01,-173.65C3681.34,-159.42 3703.16,-139.19 3719.87,-123.68"/>
<polygon fill="black" stroke="black" points="3722.66,-125.86 3727.61,-116.5 3717.9,-120.73 3722.66,-125.86"/>
</g>
</g>
</svg>
