<?xml version="1.0" encoding="UTF-8" standalone="no"?>
<!DOCTYPE svg PUBLIC "-//W3C//DTD SVG 1.1//EN"
 "http://www.w3.org/Graphics/SVG/1.1/DTD/svg11.dtd">
<!-- Generated by graphviz version 2.43.0 (0)
 -->
<!-- Title: pastafarianism Pages: 1 -->
<svg width="311pt" height="261pt"
 viewBox="0.00 0.00 310.50 261.00" xmlns="http://www.w3.org/2000/svg" xmlns:xlink="http://www.w3.org/1999/xlink">
<g id="graph0" class="graph" transform="scale(1 1) rotate(0) translate(4 257)">
<title>pastafarianism</title>
<polygon fill="white" stroke="transparent" points="-4,4 -4,-257 306.5,-257 306.5,4 -4,4"/>
<!-- Tutorial One -->
<g id="node1" class="node">
<title>Tutorial One</title>
<polygon fill="gold" stroke="black" points="231,-253 118.85,-253 90,-197 202.15,-197 231,-253"/>
<text text-anchor="middle" x="160.5" y="-227.8" font-family="Times,serif" font-size="9.00">Tutorial One</text>
<text text-anchor="middle" x="160.5" y="-217.8" font-family="Times,serif" font-size="9.00">SuccessOnAll</text>
</g>
<!-- Topics2BB -->
<g id="node2" class="node">
<title>Topics2BB</title>
<polygon fill="orange" stroke="black" points="155.5,-161 87.5,-161 87.5,-125 155.5,-125 155.5,-161"/>
<text text-anchor="middle" x="121.5" y="-140.8" font-family="Times,serif" font-size="9.00">Ⓜ Topics2BB</text>
</g>
<!-- Tutorial One&#45;&gt;Topics2BB -->
<g id="edge1" class="edge">
<title>Tutorial One&#45;&gt;Topics2BB</title>
<path fill="none" stroke="black" d="M147.3,-196.92C143.12,-188.35 138.52,-178.91 134.37,-170.39"/>
<polygon fill="black" stroke="black" points="137.45,-168.73 129.92,-161.27 131.16,-171.8 137.45,-168.73"/>
</g>
<!-- Tasks -->
<g id="node4" class="node">
<title>Tasks</title>
<polygon fill="cyan" stroke="black" points="228.5,-135.54 228.5,-150.46 212.68,-161 190.32,-161 174.5,-150.46 174.5,-135.54 190.32,-125 212.68,-125 228.5,-135.54"/>
<text text-anchor="middle" x="201.5" y="-140.8" font-family="Times,serif" font-size="9.00">Tasks</text>
</g>
<!-- Tutorial One&#45;&gt;Tasks -->
<g id="edge3" class="edge">
<title>Tutorial One&#45;&gt;Tasks</title>
<path fill="none" stroke="black" d="M174.38,-196.92C178.77,-188.35 183.61,-178.91 187.97,-170.39"/>
<polygon fill="black" stroke="black" points="191.2,-171.77 192.65,-161.27 184.97,-168.58 191.2,-171.77"/>
</g>
<!-- Battery2BB -->
<g id="node3" class="node">
<title>Battery2BB</title>
<ellipse fill="gray" stroke="black" cx="119.5" cy="-71" rx="34.13" ry="18"/>
<text text-anchor="middle" x="119.5" y="-68.8" font-family="Times,serif" font-size="9.00">Battery2BB</text>
</g>
<!-- Topics2BB&#45;&gt;Battery2BB -->
<g id="edge2" class="edge">
<title>Topics2BB&#45;&gt;Battery2BB</title>
<path fill="none" stroke="black" d="M121.01,-124.7C120.79,-116.98 120.52,-107.71 120.27,-99.11"/>
<polygon fill="black" stroke="black" points="123.77,-99 119.99,-89.1 116.78,-99.2 123.77,-99"/>
</g>
<!-- /battery_low_warning -->
<g id="node7" class="node">
<title>/battery_low_warning</title>
<polygon fill="white" stroke="blue" points="109,-17 0,-17 0,0 109,0 109,-17"/>
<text text-anchor="middle" x="54.5" y="-6.6" font-family="Times,serif" font-size="8.00" fill="blue">/battery_low_warning: False</text>
</g>
<!-- Battery2BB&#45;&gt;/battery_low_warning -->
<g id="edge6" class="edge">
<title>Battery2BB&#45;&gt;/battery_low_warning</title>
<path fill="none" stroke="blue" d="M103.43,-55.04C93.23,-45.55 80.09,-33.32 70,-23.92"/>
<polygon fill="blue" stroke="blue" points="72.38,-21.36 62.67,-17.1 67.61,-26.48 72.38,-21.36"/>
</g>
<!-- /battery -->
<g id="node8" class="node">
<title>/battery</title>
<polygon fill="white" stroke="blue" points="242,-17 127,-17 127,0 242,0 242,-17"/>
<text text-anchor="middle" x="184.5" y="-6.6" font-family="Times,serif" font-size="8.00" fill="blue">/battery: sensor_msgs.msg.B...</text>
</g>
<!-- Battery2BB&#45;&gt;/battery -->
<g id="edge7" class="edge">
<title>Battery2BB&#45;&gt;/battery</title>
<path fill="none" stroke="blue" d="M135.57,-55.04C145.77,-45.55 158.91,-33.32 169,-23.92"/>
<polygon fill="blue" stroke="blue" points="171.39,-26.48 176.33,-17.1 166.62,-21.36 171.39,-26.48"/>
</g>
<!-- Flip Eggs -->
<g id="node5" class="node">
<title>Flip Eggs</title>
<ellipse fill="gray" stroke="black" cx="201.5" cy="-71" rx="29.39" ry="18"/>
<text text-anchor="middle" x="201.5" y="-68.8" font-family="Times,serif" font-size="9.00">Flip Eggs</text>
</g>
<!-- Tasks&#45;&gt;Flip Eggs -->
<g id="edge4" class="edge">
<title>Tasks&#45;&gt;Flip Eggs</title>
<path fill="none" stroke="black" d="M201.5,-124.7C201.5,-116.98 201.5,-107.71 201.5,-99.11"/>
<polygon fill="black" stroke="black" points="205,-99.1 201.5,-89.1 198,-99.1 205,-99.1"/>
</g>
<!-- Idle -->
<g id="node6" class="node">
<title>Idle</title>
<ellipse fill="gray" stroke="black" cx="275.5" cy="-71" rx="27" ry="18"/>
<text text-anchor="middle" x="275.5" y="-68.8" font-family="Times,serif" font-size="9.00">Idle</text>
</g>
<!-- Tasks&#45;&gt;Idle -->
<g id="edge5" class="edge">
<title>Tasks&#45;&gt;Idle</title>
<path fill="none" stroke="black" d="M216.83,-127.5C227.32,-117.58 241.39,-104.26 253.13,-93.16"/>
<polygon fill="black" stroke="black" points="255.58,-95.66 260.44,-86.25 250.77,-90.58 255.58,-95.66"/>
</g>
</g>
</svg>
